<svg version="1.1" xmlns="http://www.w3.org/2000/svg" xmlns:xlink="http://www.w3.org/1999/xlink" width="24" height="24" viewBox="0,0,256,256"><g fill="none" fill-rule="nonzero" stroke="#ffe466" stroke-width="1.5" stroke-linecap="round" stroke-linejoin="round" stroke-miterlimit="10" stroke-dasharray="" stroke-dashoffset="0" font-family="none" font-weight="none" font-size="none" text-anchor="none" style="mix-blend-mode: normal"><g transform="translate(-0.02302,0.03584) scale(10.66667,10.66667)"><path d="M13.73,3.51001l1.76,3.52c0.24,0.49001 0.88,0.96 1.42,1.05l3.19,0.53c2.04,0.34 2.52,1.81999 1.05,3.27999l-2.48,2.48c-0.42,0.42 -0.65,1.23 -0.52,1.81l0.71,3.07c0.56,2.43 -0.73,3.37 -2.88,2.1l-2.99,-1.77c-0.54,-0.32 -1.43,-0.32 -1.98,0l-2.99003,1.77c-2.14,1.27 -3.44,0.32 -2.88,-2.1l0.71,-3.07c0.13,-0.58 -0.1,-1.39 -0.52,-1.81l-2.48,-2.48c-1.46,-1.46 -0.99,-2.93999 1.05,-3.27999l3.19,-0.53c0.53,-0.09 1.17,-0.55999 1.41,-1.05l1.76003,-3.52c0.96,-1.91 2.52,-1.91 3.47,0z"></path></g></g></svg>