<svg width="143" height="56" viewBox="0 0 143 56" fill="none" xmlns="http://www.w3.org/2000/svg">
<path d="M72.416 39.192C71.152 39.192 69.928 39 68.744 38.616C67.576 38.216 66.656 37.704 65.984 37.08L66.872 35.208C67.512 35.784 68.328 36.256 69.32 36.624C70.328 36.976 71.36 37.152 72.416 37.152C73.808 37.152 74.848 36.92 75.536 36.456C76.224 35.976 76.568 35.344 76.568 34.56C76.568 33.984 76.376 33.52 75.992 33.168C75.624 32.8 75.16 32.52 74.6 32.328C74.056 32.136 73.28 31.92 72.272 31.68C71.008 31.376 69.984 31.072 69.2 30.768C68.432 30.464 67.768 30 67.208 29.376C66.664 28.736 66.392 27.88 66.392 26.808C66.392 25.912 66.624 25.104 67.088 24.384C67.568 23.664 68.288 23.088 69.248 22.656C70.208 22.224 71.4 22.008 72.824 22.008C73.816 22.008 74.792 22.136 75.752 22.392C76.712 22.648 77.536 23.016 78.224 23.496L77.432 25.416C76.728 24.968 75.976 24.632 75.176 24.408C74.376 24.168 73.592 24.048 72.824 24.048C71.464 24.048 70.44 24.296 69.752 24.792C69.08 25.288 68.744 25.928 68.744 26.712C68.744 27.288 68.936 27.76 69.32 28.128C69.704 28.48 70.176 28.76 70.736 28.968C71.312 29.16 72.088 29.368 73.064 29.592C74.328 29.896 75.344 30.2 76.112 30.504C76.88 30.808 77.536 31.272 78.08 31.896C78.64 32.52 78.92 33.36 78.92 34.416C78.92 35.296 78.68 36.104 78.2 36.84C77.72 37.56 76.992 38.136 76.016 38.568C75.04 38.984 73.84 39.192 72.416 39.192ZM100.984 26.28L96.2319 39H94.0239L90.3519 29.352L86.6319 39H84.4239L79.6959 26.28H81.8799L85.5759 36.408L89.4159 26.28H91.3599L95.1279 36.456L98.9199 26.28H100.984ZM103.202 26.28H105.506V39H103.202V26.28ZM104.354 23.832C103.906 23.832 103.53 23.688 103.226 23.4C102.938 23.112 102.794 22.76 102.794 22.344C102.794 21.928 102.938 21.576 103.226 21.288C103.53 20.984 103.906 20.832 104.354 20.832C104.802 20.832 105.17 20.976 105.458 21.264C105.762 21.536 105.914 21.88 105.914 22.296C105.914 22.728 105.762 23.096 105.458 23.4C105.17 23.688 104.802 23.832 104.354 23.832ZM121.953 26.28V37.272C121.953 39.496 121.401 41.136 120.297 42.192C119.193 43.264 117.545 43.8 115.353 43.8C114.153 43.8 113.009 43.632 111.921 43.296C110.833 42.976 109.953 42.512 109.281 41.904L110.385 40.128C110.977 40.64 111.705 41.04 112.569 41.328C113.449 41.632 114.353 41.784 115.281 41.784C116.769 41.784 117.865 41.432 118.569 40.728C119.289 40.024 119.649 38.952 119.649 37.512V36.504C119.105 37.16 118.433 37.656 117.633 37.992C116.849 38.312 115.993 38.472 115.065 38.472C113.849 38.472 112.745 38.216 111.753 37.704C110.777 37.176 110.009 36.448 109.449 35.52C108.889 34.576 108.609 33.504 108.609 32.304C108.609 31.104 108.889 30.04 109.449 29.112C110.009 28.168 110.777 27.44 111.753 26.928C112.745 26.416 113.849 26.16 115.065 26.16C116.025 26.16 116.913 26.336 117.729 26.688C118.561 27.04 119.241 27.56 119.769 28.248V26.28H121.953ZM115.329 36.456C116.161 36.456 116.905 36.28 117.561 35.928C118.233 35.576 118.753 35.088 119.121 34.464C119.505 33.824 119.697 33.104 119.697 32.304C119.697 31.072 119.289 30.08 118.473 29.328C117.657 28.56 116.609 28.176 115.329 28.176C114.033 28.176 112.977 28.56 112.161 29.328C111.345 30.08 110.937 31.072 110.937 32.304C110.937 33.104 111.121 33.824 111.489 34.464C111.873 35.088 112.393 35.576 113.049 35.928C113.721 36.28 114.481 36.456 115.329 36.456ZM129.883 39.144C128.843 39.144 127.843 39.008 126.883 38.736C125.923 38.448 125.171 38.088 124.627 37.656L125.587 35.832C126.147 36.232 126.827 36.552 127.627 36.792C128.427 37.032 129.235 37.152 130.051 37.152C132.067 37.152 133.075 36.576 133.075 35.424C133.075 35.04 132.939 34.736 132.667 34.512C132.395 34.288 132.051 34.128 131.635 34.032C131.235 33.92 130.659 33.8 129.907 33.672C128.883 33.512 128.043 33.328 127.387 33.12C126.747 32.912 126.195 32.56 125.731 32.064C125.267 31.568 125.035 30.872 125.035 29.976C125.035 28.824 125.515 27.904 126.475 27.216C127.435 26.512 128.723 26.16 130.339 26.16C131.187 26.16 132.035 26.264 132.883 26.472C133.731 26.68 134.427 26.96 134.971 27.312L133.987 29.136C132.947 28.464 131.723 28.128 130.315 28.128C129.339 28.128 128.595 28.288 128.083 28.608C127.571 28.928 127.315 29.352 127.315 29.88C127.315 30.296 127.459 30.624 127.747 30.864C128.035 31.104 128.387 31.28 128.803 31.392C129.235 31.504 129.835 31.632 130.603 31.776C131.627 31.952 132.451 32.144 133.075 32.352C133.715 32.544 134.259 32.88 134.707 33.36C135.155 33.84 135.379 34.512 135.379 35.376C135.379 36.528 134.883 37.448 133.891 38.136C132.915 38.808 131.579 39.144 129.883 39.144Z" fill="#B79C77"/>
<path fill-rule="evenodd" clip-rule="evenodd" d="M43.6479 43.0107C47.5765 39.075 50.2096 33.1044 50.2096 26.0357C50.2096 13.2105 41.5414 4 32.1946 4C22.8479 4 14.1797 13.2105 14.1797 26.0357C14.1797 33.1044 16.8128 39.075 20.7414 43.0107C19.6669 43.7863 18.653 44.6678 17.7101 45.6429C13.0948 40.8704 10.1797 33.8557 10.1797 26.0357C10.1797 11.6566 20.0361 0 32.1946 0C44.3532 0 54.2096 11.6566 54.2096 26.0357C54.2096 33.8557 51.2945 40.8704 46.6792 45.6429C45.7363 44.6678 44.7224 43.7863 43.6479 43.0107Z" fill="#EBCDA2"/>
<path fill-rule="evenodd" clip-rule="evenodd" d="M54.2096 48.8572H10.1797C10.1797 52.4076 13.0579 55.2858 16.6083 55.2858H47.781C51.3314 55.2858 54.2096 52.4076 54.2096 48.8572ZM37.855 50.7858H26.533V53.3572H37.855V50.7858Z" fill="#EBCDA2"/>
<path fill-rule="evenodd" clip-rule="evenodd" d="M49.1759 26.3571C49.1759 37.7184 41.5724 46.9285 32.1929 46.9285C22.8135 46.9285 15.21 37.7184 15.21 26.3571C15.21 14.9958 22.8135 5.78564 32.1929 5.78564C41.5724 5.78564 49.1759 14.9958 49.1759 26.3571ZM24.8477 32.7507L35.2947 17.505L37.7567 19.2672L27.3096 34.513L24.8477 32.7507ZM37.639 24.2899L31.7637 32.864L34.2257 34.6262L40.101 26.0522L37.639 24.2899Z" fill="#EBCDA2"/>
<path fill-rule="evenodd" clip-rule="evenodd" d="M0 41.6688C3.01364 41.6738 5.48691 43.9829 5.75234 46.9286H5.79888C6.06432 43.9829 8.53763 41.6738 11.5513 41.6688C8.38062 41.6636 5.80807 39.1079 5.77561 35.9437C5.74316 39.1079 3.17066 41.6636 0 41.6688ZM5.77561 35.8225C5.77722 35.6658 5.78506 35.5106 5.79889 35.3572H5.75234C5.76617 35.5106 5.774 35.6658 5.77561 35.8225Z" fill="#EBCDA2"/>
<path fill-rule="evenodd" clip-rule="evenodd" d="M51.6836 9.5259V9.52594H52.8252C55.8432 9.52594 58.3215 11.8368 58.5873 14.7857H58.6341C58.8999 11.8368 61.3782 9.52591 64.3963 9.52591H65.1284V9.52588H64.3963C61.2152 9.52588 58.6337 6.95863 58.6107 3.78298C58.5877 6.95864 56.0062 9.5259 52.8252 9.5259H51.6836ZM58.6107 3.69725C58.6119 3.53456 58.6198 3.37347 58.6341 3.21423H58.5873C58.6016 3.37347 58.6095 3.53456 58.6107 3.69725Z" fill="#EBCDA2"/>
</svg>
