<?xml version="1.0" encoding="UTF-8"?>
<!DOCTYPE svg PUBLIC "-//W3C//DTD SVG 1.1//EN" "http://www.w3.org/Graphics/SVG/1.1/DTD/svg11.dtd">
<svg xmlns="http://www.w3.org/2000/svg" version="1.1" width="65px" height="56px" style="shape-rendering:geometricPrecision; text-rendering:geometricPrecision; image-rendering:optimizeQuality; fill-rule:evenodd; clip-rule:evenodd" xmlns:xlink="http://www.w3.org/1999/xlink">
<g><path style="opacity:0.982" fill="#ebcca2" d="M 25.5,-0.5 C 29.5,-0.5 33.5,-0.5 37.5,-0.5C 51.7966,7.85659 56.6299,20.1899 52,36.5C 50.7441,40.0163 48.7441,43.0163 46,45.5C 44.5187,44.5291 43.6854,43.1958 43.5,41.5C 44.9063,41.0269 45.573,40.0269 45.5,38.5C 46.8333,38.1667 46.8333,37.8333 45.5,37.5C 45.5,36.8333 45.8333,36.5 46.5,36.5C 47.8333,36.1667 47.8333,35.8333 46.5,35.5C 46.8333,34.8333 47.1667,34.1667 47.5,33.5C 48.8333,33.1667 48.8333,32.8333 47.5,32.5C 47.8333,31.8333 48.1667,31.1667 48.5,30.5C 49.8333,27.1667 49.8333,23.8333 48.5,20.5C 47.8333,20.5 47.5,20.1667 47.5,19.5C 48.8333,18.5 48.8333,17.5 47.5,16.5C 47.6716,15.5084 47.3382,14.8417 46.5,14.5C 46.6716,13.5084 46.3382,12.8417 45.5,12.5C 45.5,11.8333 45.1667,11.5 44.5,11.5C 44.1412,9.62901 43.1412,8.12901 41.5,7C 37.916,4.68079 34.2494,3.84746 30.5,4.5C 28.901,4.23219 27.5676,4.56552 26.5,5.5C 25.5084,5.32842 24.8417,5.66175 24.5,6.5C 23.5084,6.32842 22.8417,6.66175 22.5,7.5C 21.8333,7.5 21.5,7.83333 21.5,8.5C 20.8333,8.5 20.5,8.83333 20.5,9.5C 19.8333,9.5 19.5,9.83333 19.5,10.5C 18.8333,10.5 18.5,10.8333 18.5,11.5C 17.6618,11.8417 17.3284,12.5084 17.5,13.5C 16.1667,13.8333 16.1667,14.1667 17.5,14.5C 17.5,15.1667 17.1667,15.5 16.5,15.5C 15.1667,16.1667 15.1667,16.8333 16.5,17.5C 16.5,18.1667 16.1667,18.5 15.5,18.5C 14.6618,18.8417 14.3284,19.5084 14.5,20.5C 13.7659,21.7079 13.4326,23.0413 13.5,24.5C 13.2627,25.791 13.596,26.791 14.5,27.5C 15.1098,28.391 15.4431,29.391 15.5,30.5C 14.1667,31.5 14.1667,32.5 15.5,33.5C 16.1667,33.5 16.5,33.8333 16.5,34.5C 15.1667,34.8333 15.1667,35.1667 16.5,35.5C 17.1667,35.5 17.5,35.8333 17.5,36.5C 16.1667,36.8333 16.1667,37.1667 17.5,37.5C 18.1667,37.5 18.5,37.8333 18.5,38.5C 17.1667,38.8333 17.1667,39.1667 18.5,39.5C 18.5,40.1667 18.8333,40.5 19.5,40.5C 19.5,41.1667 19.8333,41.5 20.5,41.5C 20.2381,43.5638 19.0714,44.8971 17,45.5C 7.47477,32.7273 7.14143,19.7273 16,6.5C 18.7901,3.53498 21.9567,1.20165 25.5,-0.5 Z M 30.5,4.5 C 34.2494,3.84746 37.916,4.68079 41.5,7C 43.1412,8.12901 44.1412,9.62901 44.5,11.5C 40.6649,7.58245 35.9983,5.24912 30.5,4.5 Z M 34.5,17.5 C 35.2891,17.7828 35.9558,18.2828 36.5,19C 33.376,23.414 30.376,27.914 27.5,32.5C 26.4239,33.6559 25.4239,33.4892 24.5,32C 28.2134,27.3988 31.5468,22.5654 34.5,17.5 Z M 36.5,24.5 C 37.4972,24.4701 38.1639,24.9701 38.5,26C 37.2115,28.7412 35.5448,31.2412 33.5,33.5C 32.6919,33.1924 32.0253,32.6924 31.5,32C 33.4146,29.6004 35.0812,27.1004 36.5,24.5 Z"/></g>
<g><path style="opacity:0.96" fill="#ebcca2" d="M 57.5,3.5 C 58.6499,6.14578 60.6499,7.97912 63.5,9C 61,10.1667 59.1667,12 58,14.5C 57.5,11.3333 55.6667,9.5 52.5,9C 55.4207,8.24844 57.0874,6.41511 57.5,3.5 Z"/></g>
<g><path style="opacity:0.99" fill="#ebcca2" d="M 30.5,4.5 C 35.9983,5.24912 40.6649,7.58245 44.5,11.5C 45.1667,11.5 45.5,11.8333 45.5,12.5C 45.3284,13.4916 45.6618,14.1583 46.5,14.5C 46.3284,15.4916 46.6618,16.1583 47.5,16.5C 47.5,17.5 47.5,18.5 47.5,19.5C 47.5,20.1667 47.8333,20.5 48.5,20.5C 48.5,23.8333 48.5,27.1667 48.5,30.5C 48.1667,31.1667 47.8333,31.8333 47.5,32.5C 47.5,32.8333 47.5,33.1667 47.5,33.5C 47.1667,34.1667 46.8333,34.8333 46.5,35.5C 46.5,35.8333 46.5,36.1667 46.5,36.5C 45.8333,36.5 45.5,36.8333 45.5,37.5C 45.5,37.8333 45.5,38.1667 45.5,38.5C 44.1667,39.1667 43.1667,40.1667 42.5,41.5C 35.2825,48.1148 27.9492,48.1148 20.5,41.5C 19.8333,41.5 19.5,41.1667 19.5,40.5C 18.8333,40.5 18.5,40.1667 18.5,39.5C 18.5,39.1667 18.5,38.8333 18.5,38.5C 18.5,37.8333 18.1667,37.5 17.5,37.5C 17.5,37.1667 17.5,36.8333 17.5,36.5C 17.5,35.8333 17.1667,35.5 16.5,35.5C 16.5,35.1667 16.5,34.8333 16.5,34.5C 16.5,33.8333 16.1667,33.5 15.5,33.5C 15.5,32.5 15.5,31.5 15.5,30.5C 15.4431,29.391 15.1098,28.391 14.5,27.5C 14.5,26.5 14.5,25.5 14.5,24.5C 14.8333,23.1667 15.1667,21.8333 15.5,20.5C 15.5,19.8333 15.5,19.1667 15.5,18.5C 16.1667,18.5 16.5,18.1667 16.5,17.5C 16.5,16.8333 16.5,16.1667 16.5,15.5C 17.1667,15.5 17.5,15.1667 17.5,14.5C 17.5,14.1667 17.5,13.8333 17.5,13.5C 18.3382,13.1583 18.6716,12.4916 18.5,11.5C 19.1667,11.5 19.5,11.1667 19.5,10.5C 20.1667,10.5 20.5,10.1667 20.5,9.5C 21.1667,9.5 21.5,9.16667 21.5,8.5C 22.1667,8.5 22.5,8.16667 22.5,7.5C 23.4916,7.67158 24.1583,7.33825 24.5,6.5C 25.4916,6.67158 26.1583,6.33825 26.5,5.5C 28.099,5.76781 29.4324,5.43448 30.5,4.5 Z M 34.5,17.5 C 31.5468,22.5654 28.2134,27.3988 24.5,32C 25.4239,33.4892 26.4239,33.6559 27.5,32.5C 30.376,27.914 33.376,23.414 36.5,19C 35.9558,18.2828 35.2891,17.7828 34.5,17.5 Z M 36.5,24.5 C 35.0812,27.1004 33.4146,29.6004 31.5,32C 32.0253,32.6924 32.6919,33.1924 33.5,33.5C 35.5448,31.2412 37.2115,28.7412 38.5,26C 38.1639,24.9701 37.4972,24.4701 36.5,24.5 Z"/></g>
<g><path style="opacity:0.35" fill="#ebcba3" d="M 14.5,20.5 C 14.8333,20.5 15.1667,20.5 15.5,20.5C 15.1667,21.8333 14.8333,23.1667 14.5,24.5C 14.1667,24.5 13.8333,24.5 13.5,24.5C 13.4326,23.0413 13.7659,21.7079 14.5,20.5 Z"/></g>
<g><path style="opacity:0.957" fill="#ebcca2" d="M -0.5,41.5 C -0.5,41.1667 -0.5,40.8333 -0.5,40.5C 2.70296,40.3185 4.5363,38.6518 5,35.5C 5.94041,38.7732 8.10707,40.6065 11.5,41C 8.80402,41.6898 6.63735,43.1898 5,45.5C 3.98166,43.0718 2.14833,41.7385 -0.5,41.5 Z"/></g>
<g><path style="opacity:0.35" fill="#ebcba3" d="M 45.5,38.5 C 45.573,40.0269 44.9063,41.0269 43.5,41.5C 43.1667,41.5 42.8333,41.5 42.5,41.5C 43.1667,40.1667 44.1667,39.1667 45.5,38.5 Z"/></g>
<g><path style="opacity:0.979" fill="#ebcca2" d="M 47.5,55.5 C 36.8333,55.5 26.1667,55.5 15.5,55.5C 11.6731,54.3247 9.67308,51.658 9.5,47.5C 24.1667,47.5 38.8333,47.5 53.5,47.5C 53.7231,51.9324 51.7231,54.599 47.5,55.5 Z M 26.5,50.5 C 30.226,50.1774 33.8927,50.5108 37.5,51.5C 35.6667,51.8333 33.8333,52.1667 32,52.5C 29.7047,52.4535 27.8714,51.7868 26.5,50.5 Z"/></g>
</svg>
